<svg width="400" height="400" version="1.1" xmlns="http://www.w3.org/2000/svg" desc="Created with imagetracer.js version 1.2.6" ><path fill="rgb(151,201,60)" stroke="rgb(151,201,60)" stroke-width="1" opacity="0.9725490196078431" d="M 107.5 0 L 144.5 0 L 145.5 1 L 153.5 2 L 154.5 3 L 158.5 3 L 170.5 7 L 189.5 16 L 201.5 24 L 223 44.5 L 235 61.5 L 239 70 L 227.5 68 L 226.5 67 L 216.5 66 L 215.5 65 L 204.5 65 L 203.5 64 L 202.5 65 L 181.5 65 L 175.5 67 L 169.5 67 L 155.5 72 L 152.5 72 L 142.5 77 L 140.5 77 Q 114.4 89.9 96 110.5 L 82 129.5 L 71 151.5 L 67 163.5 L 67 166.5 L 65 171.5 L 65 175.5 L 64 176.5 L 64 181.5 L 63 182.5 L 63 191.5 L 62 192.5 L 62 208.5 L 63 209.5 L 63 218.5 L 64 219.5 L 64 225.5 L 65 226.5 L 65 230.5 L 66 231.5 L 66 234.5 L 67 237 L 63.5 236 L 48.5 226 L 29 207.5 L 15 187.5 L 9 175.5 L 9 173.5 L 7 170.5 L 3 158.5 L 3 154.5 L 2 153.5 L 1 144.5 L 0 143.5 L 0 107.5 L 1 106.5 L 1 101.5 L 2 100.5 L 2 97.5 L 3 96.5 L 3 93.5 L 4 92.5 L 4 89.5 L 7 80.5 L 15 63.5 L 29 43.5 L 43.5 29 L 55.5 20 L 73.5 10 L 75.5 10 L 80.5 7 L 83.5 7 L 89.5 4 L 92.5 4 L 101.5 1 L 106.5 1 L 107.5 0 Z " /><path fill="rgb(151,201,60)" stroke="rgb(151,201,60)" stroke-width="1" opacity="0.9725490196078431" d="M 278.5 277 L 279 277.5 L 275.5 281 L 275 280.5 L 278.5 277 Z " /><path fill="rgb(0,0,0)" stroke="rgb(0,0,0)" stroke-width="1" opacity="0" d="M 0 0 L 107 0.5 L 89.5 4 L 80.5 7 L 63.5 15 L 43.5 29 L 29 43.5 L 18 58.5 L 9 75.5 L 9 77.5 L 7 80.5 L 4 89.5 L 0.5 107 L 0 0 Z " /><path fill="rgb(0,0,0)" stroke="rgb(0,0,0)" stroke-width="1" opacity="0" d="M 145.5 0 L 400 0 L 400 253.5 L 399 253.5 L 399 249.5 L 398 248.5 L 396 237.5 L 393 231.5 L 392 226.5 L 388 219.5 L 388 217.5 L 386 215.5 L 381 205.5 L 372 193.5 L 355.5 177 L 343.5 168 L 330.5 161 L 330 164.5 L 332 169.5 L 332 173.5 L 334 179.5 L 334 185.5 L 335 186.5 L 335 215.5 L 334 216.5 L 334 222.5 L 333 223.5 L 333 227.5 L 332 228.5 L 331 236.5 L 326 251.5 L 320 264.5 L 310 280.5 L 303 289.5 L 287.5 305 L 272.5 316 L 260.5 322 L 258.5 324 L 256.5 324 L 249.5 328 L 237.5 332 L 234.5 332 L 225.5 335 L 221.5 335 L 220.5 336 L 212.5 336 L 211.5 337 L 185.5 337 L 184.5 336 L 177.5 336 L 176.5 335 L 171.5 335 L 170.5 334 L 163 333 L 165 338.5 L 174 351.5 L 192.5 371 L 204.5 380 L 222.5 390 L 224.5 390 L 229.5 393 L 238.5 396 L 256 399.5 L 0 400 L 0.5 144 L 1 149.5 L 3 154.5 L 3 158.5 L 7 170.5 L 9 173.5 L 9 175.5 L 15 187.5 L 29 207.5 L 43.5 222 L 58.5 233 L 67 237 L 66 234.5 L 66 231.5 L 65 230.5 L 65 226.5 L 64 225.5 L 64 219.5 L 63 218.5 L 63 209.5 L 62 208.5 L 62 192.5 L 63 191.5 L 63 182.5 L 64 181.5 L 65 171.5 L 66 170.5 L 67 163.5 L 71 151.5 L 73 148.5 L 73 146.5 L 79 134.5 L 88 120.5 Q 96.6 108.6 107.5 99 L 127.5 84 L 140.5 77 L 142.5 77 L 152.5 72 L 155.5 72 L 170.5 67 L 175.5 67 L 176.5 66 Q 181.3 67.3 182.5 65 L 215.5 65 L 216.5 66 L 226.5 67 L 227.5 68 L 239 70 L 235 61.5 L 227 49.5 L 206.5 28 L 189.5 16 L 175.5 9 L 173.5 9 L 170.5 7 L 158.5 3 L 154.5 3 L 149.5 1 L 145.5 1 L 145.5 0 Z M 193 90 L 192 91 L 183 91 L 177 93 L 173 93 L 172 94 L 169 94 L 160 97 L 145 104 L 129 115 Q 113 127 103 145 L 93 167 L 90 182 L 89 183 L 89 190 L 88 191 L 88 212 L 89 213 L 89 219 L 90 220 L 90 224 L 93 233 L 93 236 L 102 256 L 114 273 L 127 285 L 144 297 L 158 304 L 170 308 L 178 309 L 179 310 L 184 310 L 185 311 L 214 311 L 215 310 L 225 309 L 232 306 L 235 306 L 243 302 L 245 302 L 258 295 L 276 281 L 286 270 L 296 255 L 305 234 L 305 231 L 307 227 L 307 223 L 308 222 L 308 216 L 309 215 L 309 187 L 308 186 L 308 181 L 307 180 L 306 172 L 302 160 L 295 146 L 282 128 L 273 118 L 260 108 L 241 98 L 239 98 L 233 95 L 222 93 L 221 92 L 217 92 L 216 91 L 193 90 Z " /><path fill="rgb(0,0,0)" stroke="rgb(0,0,0)" stroke-width="1" opacity="0" d="M 399.5 294 L 400 400 L 293 399.5 L 310.5 396 L 319.5 393 L 322.5 391 L 324.5 391 L 336.5 385 L 356.5 371 L 372 355.5 L 384 338.5 L 392 322.5 L 397 307.5 L 399.5 294 Z " /><path fill="rgb(19,107,157)" stroke="rgb(19,107,157)" stroke-width="1" opacity="0.6705882352941176" d="M 194.5 90 L 202.5 90 L 203.5 91 L 214.5 91 Q 215.8 93.3 220.5 92 L 221.5 93 L 228.5 94 L 240.5 98 L 259.5 108 L 273.5 119 L 281 126.5 L 295 145.5 L 301 157.5 L 301 159.5 L 305 168.5 L 305 171.5 L 308 180.5 L 308 186.5 L 309 187.5 L 309 214.5 L 308 215.5 L 308 221.5 L 304 233.5 L 304 236.5 L 296 254.5 L 285 270.5 L 268.5 287 L 250.5 299 L 234.5 306 L 231.5 306 L 227.5 308 L 219.5 309 L 218.5 310 L 213.5 310 L 212.5 311 L 184.5 311 L 183.5 310 L 173.5 309 L 169.5 307 L 166.5 307 L 160.5 305 L 143.5 297 L 126.5 285 L 115 273.5 L 101 253.5 L 97 245.5 L 97 243.5 L 95 240.5 L 92 231.5 L 92 228.5 L 90 223.5 L 90 219.5 L 89 218.5 L 89 211.5 L 88 210.5 L 88 191.5 L 89 190.5 L 89 183.5 L 90 182.5 L 91 173.5 L 96 158.5 L 102 146.5 L 113 130.5 L 128.5 115 L 146.5 103 L 162.5 96 L 168.5 95 L 172.5 93 L 181.5 92 L 182.5 91 L 193.5 91 L 194.5 90 Z M 185 92 L 184 93 L 179 93 L 178 94 L 170 95 L 161 98 L 158 100 L 156 100 L 139 109 L 125 120 L 112 134 L 100 153 L 100 155 L 95 165 L 94 171 L 92 175 L 91 185 L 90 186 L 90 193 L 89 194 L 89 209 L 90 210 L 90 217 L 91 218 L 91 223 L 93 228 L 93 231 L 97 243 L 104 257 L 113 270 L 130 286 L 148 298 L 171 307 L 175 307 L 180 309 L 186 309 L 187 310 L 211 310 L 212 309 L 218 309 L 219 308 L 223 308 L 228 306 L 231 306 L 240 302 L 242 302 L 254 296 L 271 284 Q 284 273 293 258 L 300 244 L 300 242 L 304 233 L 305 226 L 306 225 L 306 221 L 307 220 L 307 214 L 308 213 L 308 189 L 307 188 L 307 182 L 306 181 L 305 173 L 296 150 L 283 131 L 269 116 L 261 110 L 245 101 L 238 99 L 235 97 L 225 95 L 224 94 L 220 94 L 219 93 L 214 93 L 213 92 L 185 92 Z " /><path fill="rgb(19,107,157)" stroke="rgb(19,107,157)" stroke-width="1" opacity="0.6705882352941176" d="M 295.5 297 L 296 297.5 L 293.5 300 L 293 299.5 L 295.5 297 Z " /><path fill="rgb(19,107,157)" stroke="rgb(19,107,157)" stroke-width="1" opacity="0.6705882352941176" d="M 181.5 336 L 185 336.5 L 181.5 337 L 181.5 336 Z " /><path fill="rgb(19,107,157)" stroke="rgb(19,107,157)" stroke-width="1" opacity="0.6705882352941176" d="M 213.5 336 L 217 336.5 L 213.5 337 L 213.5 336 Z " /><path fill="rgb(19,107,157)" stroke="rgb(19,107,157)" stroke-width="1" opacity="0.6705882352941176" d="M 196.5 337 L 202 337.5 L 196.5 338 L 196.5 337 Z " /><path fill="rgb(19,107,157)" stroke="rgb(19,107,157)" stroke-width="1" opacity="0.6705882352941176" d="M 370.5 356 L 371 356.5 L 368.5 359 L 368 358.5 L 370.5 356 Z " /><path fill="rgb(19,107,157)" stroke="rgb(19,107,157)" stroke-width="1" opacity="0.6705882352941176" d="M 358.5 368 L 359 368.5 L 356.5 371 L 356 370.5 L 358.5 368 Z " /><path fill="rgb(19,107,157)" stroke="rgb(19,107,157)" stroke-width="1" opacity="0.6705882352941176" d="M 256.5 399 L 259 399.5 L 256.5 400 L 256.5 399 Z " /><path fill="rgb(19,107,157)" stroke="rgb(19,107,157)" stroke-width="1" opacity="0.6705882352941176" d="M 290.5 399 L 293 399.5 L 290.5 400 L 290.5 399 Z " /><path fill="rgb(18,102,154)" stroke="rgb(18,102,154)" stroke-width="1" opacity="0.996078431372549" d="M 124.5 120 L 125 120.5 L 117.5 128 L 117 127.5 L 124.5 120 Z " /><path fill="rgb(18,102,154)" stroke="rgb(18,102,154)" stroke-width="1" opacity="0.996078431372549" d="M 89.5 193 L 90 208.5 L 89 208.5 L 89.5 193 Z " /><path fill="rgb(18,102,154)" stroke="rgb(18,102,154)" stroke-width="1" opacity="0.996078431372549" d="M 281.5 272 L 282 272.5 L 278.5 276 L 278 275.5 L 281.5 272 Z " /><path fill="rgb(18,102,154)" stroke="rgb(18,102,154)" stroke-width="1" opacity="0.996078431372549" d="M 272.5 281 L 273 281.5 L 270.5 284 L 270 283.5 L 272.5 281 Z " /><path fill="rgb(18,102,154)" stroke="rgb(18,102,154)" stroke-width="1" opacity="0.996078431372549" d="M 186.5 309 L 190 309.5 L 186.5 310 L 186.5 309 Z " /><path fill="rgb(18,102,154)" stroke="rgb(18,102,154)" stroke-width="1" opacity="0.996078431372549" d="M 208.5 309 L 211 309.5 L 208.5 310 L 208.5 309 Z " /><path fill="rgb(18,103,155)" stroke="rgb(18,103,155)" stroke-width="1" opacity="1" d="M 186.5 92 L 211.5 92 L 212.5 93 L 217.5 93 L 218.5 94 L 222.5 94 L 223.5 95 L 230.5 96 L 236.5 99 L 241.5 100 L 261.5 111 Q 272.4 118.6 281 128.5 L 294 146.5 L 299 156.5 L 299 158.5 L 301 161.5 L 305 173.5 L 305 177.5 L 307 182.5 L 307 189.5 L 308 190.5 L 308 211.5 L 307 212.5 L 307 218.5 L 306 219.5 L 306 223.5 L 305 224.5 L 304 231.5 L 301 240.5 L 298 245.5 L 298 247.5 L 288 264.5 L 273.5 281 L 256.5 294 L 238.5 303 L 229.5 306 L 222.5 307 L 221.5 308 L 216.5 308 L 215.5 309 L 208.5 309 L 207.5 310 L 190.5 310 L 189.5 309 L 181.5 309 L 180.5 308 L 176.5 308 L 175.5 307 L 171.5 307 L 167.5 305 L 164.5 305 L 144.5 296 L 128.5 285 L 115 271.5 L 102 252.5 L 95 236.5 L 95 233.5 L 91 221.5 L 91 215.5 L 90 214.5 L 90 186.5 L 91 185.5 L 91 180.5 L 92 179.5 L 93 171.5 L 96 162.5 L 98 159.5 L 98 157.5 L 103 147.5 L 114 131.5 L 129.5 116 L 140.5 108 L 158.5 99 L 170.5 95 L 174.5 95 L 179.5 93 L 185.5 93 L 186.5 92 Z " /><path fill="rgb(24,152,205)" stroke="rgb(24,152,205)" stroke-width="1" opacity="0.9764705882352941" d="M 330 162 L 332.5 162 L 344.5 169 L 357.5 179 L 370 191.5 L 380 204.5 L 386 214.5 L 396 238.5 L 396 241.5 L 398 246.5 L 398 250.5 L 399 251.5 L 399 256.5 L 400 257.5 L 400 291.5 L 399 292.5 L 399 297.5 L 398 298.5 L 398 302.5 L 395 310.5 L 395 313.5 L 393 316.5 L 392 321.5 L 387 332.5 L 374 352.5 L 359.5 368 L 348.5 377 L 337.5 384 L 323.5 391 L 321.5 391 L 318.5 393 L 309.5 396 L 306.5 396 L 301.5 398 L 297.5 398 L 296.5 399 L 290.5 399 L 289.5 400 L 259.5 400 L 258.5 399 L 252.5 399 L 251.5 398 L 247.5 398 L 246.5 397 L 239.5 396 L 230.5 393 L 227.5 391 L 225.5 391 L 211.5 384 Q 194.2 373.8 181 359.5 L 168 342.5 L 164 335.5 L 164 333 L 166.5 334 L 169.5 334 L 170.5 335 L 174.5 335 L 175.5 336 L 180.5 336 L 181.5 337 L 195.5 337 Q 196.8 339.2 201.5 338 L 202.5 337 L 216.5 337 L 217.5 336 L 231.5 334 L 252.5 327 Q 277.8 315.8 296 297.5 L 296 296 Q 298.7 297.1 298 294.5 L 305 287.5 L 317 270.5 L 327 249.5 L 331 237.5 L 331 234.5 L 333 229.5 L 333 225.5 L 334 224.5 L 334 218.5 L 335 217.5 L 335 184.5 L 334 183.5 L 333 172.5 L 332 171.5 L 332 168.5 L 331 167.5 L 331 164.5 L 330 162 Z " /></svg>