<svg width="256" height="256" version="1.1" xmlns="http://www.w3.org/2000/svg" desc="Created with imagetracer.js version 1.2.6" ><path fill="rgb(250,251,252)" stroke="rgb(250,251,252)" stroke-width="1" opacity="1" d="M 31 88 L 48.5 88 L 52 91.5 L 64.5 109 L 81.5 88 L 98.5 88 L 99 88.5 L 99 157 L 81 157 L 81 116.5 L 80.5 116 L 75 121.5 L 64.5 134 L 49.5 116 L 49 157 L 31.5 157 L 31 156.5 L 31 88 Z " /><path fill="rgb(250,251,252)" stroke="rgb(250,251,252)" stroke-width="1" opacity="1" d="M 142.5 88 L 166.5 88 L 168 89.5 L 172 103 L 143.5 103 L 138.5 105 L 136 107.5 L 132 114.5 L 132 117.5 L 131 120 L 149 120 L 149 105 L 169 105 L 169 157 L 149 157 L 149 134 L 127 134 L 131 149.5 L 135 158 L 133.5 158 L 121.5 167 L 120 167 L 116 157.5 L 116 155.5 L 114 152.5 L 112 146.5 L 112 143.5 L 111 142.5 L 111 139.5 L 110 138.5 Q 111.2 133.7 109 132.5 L 109 118.5 L 110 117.5 L 111 110.5 L 114 104.5 L 123.5 95 L 131.5 91 L 137.5 89 L 141.5 89 L 142.5 88 Z " /><path fill="rgb(250,251,252)" stroke="rgb(250,251,252)" stroke-width="1" opacity="1" d="M 183 88 L 201 88 L 201 142 L 225.5 142 L 226 143.5 L 225 144.5 L 225 147.5 L 223 151.5 L 223 154.5 L 222 157 L 183 157 L 183 88 Z " /><path fill="rgb(46,81,162)" stroke="rgb(46,81,162)" stroke-width="1" opacity="1" d="M 0 0 L 256 0 L 256 91.5 Q 254 92.5 256 93.5 L 256 256 L 0 256 L 0 0 Z M 31 88 L 31 157 L 32 157 L 49 157 L 50 116 L 65 134 L 75 122 L 81 116 L 81 117 L 81 157 L 99 157 L 99 89 L 99 88 L 82 88 L 65 109 L 52 92 L 49 88 L 31 88 Z M 143 88 L 142 89 L 138 89 L 132 91 L 124 95 L 114 105 L 111 111 L 110 118 L 109 119 L 109 133 Q 111 134 110 139 L 111 140 L 111 143 L 112 144 L 112 147 L 114 153 L 116 156 L 116 158 L 120 167 L 122 167 L 134 158 L 135 158 L 131 150 L 127 134 L 149 134 L 149 157 L 169 157 L 169 105 L 149 105 L 149 120 L 131 120 L 132 118 L 132 115 L 136 108 L 139 105 L 144 103 L 172 103 L 168 90 L 167 88 L 143 88 Z M 183 88 L 183 157 L 222 157 L 223 155 L 223 152 L 225 148 L 225 145 L 226 144 L 226 142 L 201 142 L 201 88 L 183 88 Z " /></svg>